<svg xmlns="http://www.w3.org/2000/svg" xmlns:xlink="http://www.w3.org/1999/xlink" viewBox="0 0 1254 104.88"><defs><style>.cls-1{fill:url(#New_Gradient_Swatch_1);}.cls-2{fill:url(#New_Gradient_Swatch_1-2);}.cls-3{fill:url(#New_Gradient_Swatch_1-3);}.cls-4{fill:url(#New_Gradient_Swatch_1-4);}.cls-5{fill:url(#New_Gradient_Swatch_1-5);}.cls-6{fill:url(#New_Gradient_Swatch_1-6);}.cls-7{fill:url(#New_Gradient_Swatch_1-7);}.cls-8{fill:url(#New_Gradient_Swatch_1-8);}.cls-9{fill:url(#New_Gradient_Swatch_1-9);}.cls-10{fill:url(#New_Gradient_Swatch_1-10);}.cls-11{fill:url(#New_Gradient_Swatch_1-11);}.cls-12{fill:url(#New_Gradient_Swatch_1-12);}.cls-13{fill:url(#New_Gradient_Swatch_1-13);}.cls-14{fill:#010101;}</style><linearGradient id="New_Gradient_Swatch_1" x1="403.27" y1="51.68" x2="1235.9" y2="57.29" gradientUnits="userSpaceOnUse"><stop offset="0" stop-color="#202127"/><stop offset="0.21" stop-color="#ec2024"/><stop offset="1" stop-color="#ee4623"/></linearGradient><linearGradient id="New_Gradient_Swatch_1-2" x1="403.41" y1="30.88" x2="1236.04" y2="36.49" xlink:href="#New_Gradient_Swatch_1"/><linearGradient id="New_Gradient_Swatch_1-3" x1="403.57" y1="7.13" x2="1236.2" y2="12.74" xlink:href="#New_Gradient_Swatch_1"/><linearGradient id="New_Gradient_Swatch_1-4" x1="403.25" y1="54.66" x2="1235.88" y2="60.28" xlink:href="#New_Gradient_Swatch_1"/><linearGradient id="New_Gradient_Swatch_1-5" x1="402.96" y1="97.6" x2="1235.59" y2="103.22" xlink:href="#New_Gradient_Swatch_1"/><linearGradient id="New_Gradient_Swatch_1-6" x1="403.27" y1="51.12" x2="1235.9" y2="56.73" xlink:href="#New_Gradient_Swatch_1"/><linearGradient id="New_Gradient_Swatch_1-7" x1="403.28" y1="50.09" x2="1235.91" y2="55.7" xlink:href="#New_Gradient_Swatch_1"/><linearGradient id="New_Gradient_Swatch_1-8" x1="403.29" y1="49.43" x2="1235.91" y2="55.04" xlink:href="#New_Gradient_Swatch_1"/><linearGradient id="New_Gradient_Swatch_1-9" x1="403.29" y1="48.83" x2="1235.92" y2="54.45" xlink:href="#New_Gradient_Swatch_1"/><linearGradient id="New_Gradient_Swatch_1-10" x1="403.29" y1="48.7" x2="1235.92" y2="54.32" xlink:href="#New_Gradient_Swatch_1"/><linearGradient id="New_Gradient_Swatch_1-11" x1="403.3" y1="48.04" x2="1235.92" y2="53.66" xlink:href="#New_Gradient_Swatch_1"/><linearGradient id="New_Gradient_Swatch_1-12" x1="403.3" y1="47.56" x2="1235.93" y2="53.17" xlink:href="#New_Gradient_Swatch_1"/><linearGradient id="New_Gradient_Swatch_1-13" x1="403.3" y1="46.95" x2="1235.93" y2="52.56" xlink:href="#New_Gradient_Swatch_1"/></defs><title>Asset 1</title><g id="Layer_2" data-name="Layer 2"><g id="Layer_1-2" data-name="Layer 1"><g id="_Group_" data-name="&lt;Group&gt;"><path id="_Compound_Path_" data-name="&lt;Compound Path&gt;" class="cls-1" d="M534.9,1.43H460.46a5.91,5.91,0,1,0,0,11.82h4.78a5.33,5.33,0,0,1,5.32,5.33v1.16a5.32,5.32,0,0,1-5.32,5.33H443.08a5.91,5.91,0,1,0,0,11.82h27.53a5.33,5.33,0,0,1,5.33,5.33v1.17a5.33,5.33,0,0,1-5.33,5.33H415.15a5.91,5.91,0,1,0,0,11.82h63.67a5.32,5.32,0,0,1,5.33,5.33c0,2.94-2.38,5.33-4.14,5.33H422.27c-4.14,0-5.33,2.38-5.33,5.33s1.19,5.32,5.33,5.32h44.47c1.75,0,4.14,2.39,4.14,5.33a5.33,5.33,0,0,1-5.33,5.33H455.14a5.33,5.33,0,1,0,0,10.66h80.4a50.87,50.87,0,0,0,50.87-51.26C586.2,23.86,563,1.43,534.9,1.43ZM515.59,42.91a1.26,1.26,0,0,1-.66,1.12l-13.11,7.18a1.54,1.54,0,0,0,0,2.7l13.11,7.18a1.26,1.26,0,0,1,.66,1.12v8.35a1.46,1.46,0,0,1-2.2,1.26L493.92,60.3a3.72,3.72,0,0,1-1.84-3.21V48a3.72,3.72,0,0,1,1.84-3.21L513.39,33.3a1.46,1.46,0,0,1,2.2,1.26Zm24.66-7.53L525.56,70a2.55,2.55,0,0,1-2.35,1.56h-4a2.11,2.11,0,0,1-1.82-3L532.08,34a2.78,2.78,0,0,1,2.35-1.32h4A2,2,0,0,1,540.25,35.38ZM563.72,60.3,544.24,71.82a1.46,1.46,0,0,1-2.2-1.26V62.21a1.26,1.26,0,0,1,.66-1.12l13.12-7.18a1.54,1.54,0,0,0,0-2.7L542.7,44a1.26,1.26,0,0,1-.66-1.12V34.56a1.67,1.67,0,0,1,2.2-1.5l19.48,11.52A4.46,4.46,0,0,1,565.55,48v9.06A3.71,3.71,0,0,1,563.72,60.3Z"/><rect id="_Path_" data-name="&lt;Path&gt;" class="cls-2" x="405.42" y="25.07" width="26.1" height="11.82" rx="5.91" ry="5.91"/><rect id="_Path_2" data-name="&lt;Path&gt;" class="cls-3" x="420.14" y="1.43" width="29.67" height="11.82" rx="5.91" ry="5.91"/><rect id="_Path_3" data-name="&lt;Path&gt;" class="cls-4" x="390.6" y="48.72" width="14.85" height="11.82" rx="5.91" ry="5.91"/><rect id="_Path_4" data-name="&lt;Path&gt;" class="cls-5" x="432.15" y="92.51" width="12.29" height="10.66" rx="5.33" ry="5.33"/></g><path class="cls-6" d="M613.74,92.58a39.11,39.11,0,0,1-11.94-28.7V1.21h26.93V63.88a13.72,13.72,0,0,0,27.43,0V1.21h26.92V63.88a39.1,39.1,0,0,1-11.93,28.7,40.47,40.47,0,0,1-57.41,0Z"/><path class="cls-7" d="M737.08,1.21a41.61,41.61,0,0,1,30.56,12.65,41.62,41.62,0,0,1,12.65,30.55,41.55,41.55,0,0,1-12.65,30.48,41.52,41.52,0,0,1-30.56,12.72h-17v15.56H693.17V1.21Zm0,59.4a16.25,16.25,0,0,0,16.28-16.2,16.25,16.25,0,0,0-16.28-16.27h-17V60.61Z"/><path class="cls-8" d="M877.42,44.41q0,20.39-15.85,33.39l15.06,25.37H845.3l-9.24-15.63c-.76,0-1.37.07-1.84.07h-17v15.56H790.3V1.21h43.92a41.6,41.6,0,0,1,30.55,12.65A41.62,41.62,0,0,1,877.42,44.41Zm-43.2,16.2a16.25,16.25,0,0,0,16.27-16.2,16.25,16.25,0,0,0-16.27-16.27h-17V60.61Z"/><path class="cls-9" d="M887.43,1.21h26.93v102H887.43Z"/><path class="cls-10" d="M994.73,69.77q1,16-9.88,26-8.88,8.1-23.59,9.1-20.53,0-34-14.14l19.53-18.55a18.49,18.49,0,0,0,9,5.12,15.09,15.09,0,0,0,4.62.64q4.26-.28,6.18-2.06c.94-.86,1.37-2.33,1.28-4.41a3.1,3.1,0,0,0-1.21-2.34q-2.85-1.92-10.37-3.34l-12.87-4q-17.83-8.25-19-26.79a31.55,31.55,0,0,1,8.25-23.8A31.43,31.43,0,0,1,955.22.14a43.35,43.35,0,0,1,13.64,1.28,44.5,44.5,0,0,1,22,12.79L971.28,32.76A17.14,17.14,0,0,0,957.21,27a6.21,6.21,0,0,0-4.34,2.06,5.82,5.82,0,0,0-1.49,4.34q.21,4.05,9.81,5.89l13.14,3.63Q993.59,50.74,994.73,69.77Z"/><path class="cls-11" d="M1004.81,1.21h26.93v102h-26.93Z"/><path class="cls-12" d="M1139.46,1.21v102h-41.78l-29-58.41v58.41h-26.93V1.21h35.46l35.24,71.12V1.21Z"/><path class="cls-13" d="M1254,42.85v9.52a50.36,50.36,0,0,1-15.35,36.94,52.22,52.22,0,0,1-74,0,50.32,50.32,0,0,1-15.35-36.94,50.41,50.41,0,0,1,15.35-37,52.11,52.11,0,0,1,71.62-2.13l-19.12,19.11A24.79,24.79,0,0,0,1201.63,27a24.42,24.42,0,0,0-17.9,7.46,24.26,24.26,0,0,0-7.46,17.91,24.38,24.38,0,0,0,7.46,17.9,25.2,25.2,0,0,0,32.33,2.92,24.9,24.9,0,0,0,9.23-11.59h-21.74V42.85Z"/><path class="cls-14" d="M26.93,1.21v75H62.81v26.93H0V1.21Z"/><path class="cls-14" d="M72.83,1.21H99.76v102H72.83Z"/><path class="cls-14" d="M207.48,1.21v102H165.7l-29-58.41v58.41H109.78V1.21h35.45l35.25,71.12V1.21Z"/><path class="cls-14" d="M229.29,92.58a39.11,39.11,0,0,1-11.94-28.7V1.21h26.93V63.88a13.72,13.72,0,0,0,27.43,0V1.21h26.93V63.88a39.11,39.11,0,0,1-11.94,28.7,40.47,40.47,0,0,1-57.41,0Z"/><path class="cls-14" d="M397.33,1.21,369.12,48.46l32.62,54.71H370.33L353.49,74.82l-16.91,28.35H305.17l32.62-54.71L309.58,1.21H341l12.5,20.89L365.93,1.21Z"/></g></g></svg>